<svg xmlns="http://www.w3.org/2000/svg" width="2555" height="957" viewBox="0 0 2555 957"><rect width="100%" height="100%" fill="#DDDDDD"/><path fill="#999999" d="M626.28 441.11h15.61l-27.06 85.16h-16.44q-2.82 0-3.9-3.65l-15.27-49.22q-.75-2.49-1.37-4.94-.62-2.45-1.04-4.94-.49 2.49-1.12 5.02-.62 2.53-1.37 5.02l-15.52 49.06q-.99 3.65-4.4 3.65h-15.77l-26.97-85.16h16.35q2.24 0 3.82 1.08 1.58 1.08 2.07 2.74l12.2 45.48q.92 3.74 1.62 7.31.71 3.57 1.21 7.14.91-3.57 1.95-7.14 1.03-3.57 2.2-7.31l14.11-45.65q.49-1.66 1.95-2.74 1.45-1.07 3.52-1.07h9.05q2.16 0 3.7 1.07 1.53 1.08 2.03 2.74l13.69 45.65q1.08 3.74 2.04 7.35.95 3.61 1.86 7.18 1.08-7.06 3.08-14.53l12.53-45.48q.58-1.66 2.07-2.74 1.5-1.08 3.57-1.08Zm43.41 32.79h38.68q0-3.99-1.12-7.51-1.12-3.53-3.36-6.19-2.24-2.65-5.69-4.19-3.44-1.54-8.01-1.54-8.88 0-13.98 5.07-5.11 5.06-6.52 14.36Zm52.29 12.36h-52.7q.49 6.56 2.32 11.33 1.83 4.78 4.81 7.89 2.99 3.11 7.1 4.65 4.11 1.53 9.09 1.53 4.98 0 8.59-1.16 3.61-1.16 6.31-2.57 2.7-1.41 4.73-2.58 2.03-1.16 3.94-1.16 2.57 0 3.82 1.91l5.89 7.47q-3.4 3.99-7.63 6.68-4.24 2.7-8.84 4.32-4.61 1.62-9.38 2.28-4.77.67-9.26.67-8.88 0-16.51-2.95-7.64-2.95-13.28-8.72-5.65-5.77-8.88-14.27-3.24-8.51-3.24-19.72 0-8.71 2.82-16.39t8.09-13.36q5.27-5.69 12.87-9.01 7.59-3.32 17.14-3.32 8.05 0 14.85 2.58 6.81 2.57 11.71 7.51 4.89 4.94 7.68 12.12 2.78 7.18 2.78 16.39 0 4.65-1 6.27-1 1.61-3.82 1.61Zm40.67-20.25v38.18q3.49 4.23 7.6 5.98 4.1 1.74 8.67 1.74 4.73 0 8.51-1.7 3.77-1.7 6.43-5.31 2.66-3.61 4.07-9.22 1.41-5.6 1.41-13.4 0-14.03-4.65-20.29-4.65-6.27-13.36-6.27-5.9 0-10.3 2.7-4.39 2.69-8.38 7.59Zm0-63.08v48.64q5.15-5.39 11.41-8.59 6.27-3.2 14.32-3.2 7.39 0 13.32 2.91 5.94 2.9 10.13 8.34 4.19 5.44 6.43 13.16 2.24 7.71 2.24 17.34 0 10.38-2.57 18.84-2.57 8.47-7.35 14.49-4.77 6.01-11.49 9.33-6.72 3.33-14.94 3.33-3.99 0-7.22-.79-3.24-.79-5.98-2.2-2.74-1.41-5.02-3.45-2.28-2.03-4.36-4.52l-.91 5.73q-.5 2.15-1.7 3.07-1.21.91-3.28.91h-13.53V402.93h20.5Zm118.69 101.34v-14.35q-8.88.41-14.94 1.53-6.06 1.12-9.71 2.86-3.65 1.75-5.23 4.07-1.58 2.33-1.58 5.06 0 5.4 3.2 7.72 3.2 2.33 8.34 2.33 6.31 0 10.92-2.28 4.6-2.29 9-6.94Zm-43.32-44.73-3.66-6.56q14.69-13.44 35.36-13.44 7.47 0 13.36 2.44 5.9 2.45 9.96 6.81 4.07 4.36 6.19 10.42 2.11 6.05 2.11 13.28v53.78h-9.29q-2.91 0-4.48-.87-1.58-.87-2.49-3.53l-1.83-6.14q-3.24 2.9-6.31 5.1-3.07 2.2-6.39 3.7-3.32 1.49-7.09 2.28-3.78.79-8.35.79-5.39 0-9.96-1.45-4.56-1.46-7.88-4.36-3.32-2.91-5.15-7.22-1.82-4.32-1.82-10.05 0-3.23 1.08-6.43 1.07-3.19 3.52-6.1 2.45-2.9 6.35-5.48 3.9-2.57 9.59-4.48 5.68-1.91 13.24-3.11 7.55-1.2 17.26-1.45v-4.98q0-8.55-3.65-12.66-3.65-4.11-10.54-4.11-4.98 0-8.26 1.16-3.28 1.16-5.77 2.62-2.49 1.45-4.52 2.61-2.04 1.16-4.53 1.16-2.15 0-3.65-1.12-1.49-1.12-2.4-2.61Zm103.08 6.47v38.18q3.49 4.23 7.6 5.98 4.1 1.74 8.92 1.74 4.65 0 8.38-1.74 3.74-1.75 6.35-5.31 2.62-3.57 4.03-9.01 1.41-5.44 1.41-12.82 0-7.47-1.21-12.66-1.2-5.19-3.44-8.43-2.24-3.23-5.44-4.73-3.19-1.49-7.26-1.49-6.39 0-10.87 2.7-4.48 2.69-8.47 7.59Zm-2.74-21.16 1.66 7.88q5.23-5.89 11.87-9.54 6.64-3.65 15.61-3.65 6.97 0 12.74 2.9 5.76 2.91 9.96 8.42 4.19 5.52 6.47 13.62 2.28 8.09 2.28 18.55 0 9.54-2.57 17.68-2.57 8.13-7.35 14.11-4.77 5.97-11.53 9.33-6.77 3.37-15.15 3.37-7.14 0-12.2-2.2t-9.05-6.11v34.86h-20.5V441.11h12.53q3.99 0 5.23 3.74Zm97.03 21.16v38.18q3.49 4.23 7.59 5.98 4.11 1.74 8.93 1.74 4.64 0 8.38-1.74 3.73-1.75 6.35-5.31 2.61-3.57 4.02-9.01 1.42-5.44 1.42-12.82 0-7.47-1.21-12.66-1.2-5.19-3.44-8.43-2.24-3.23-5.44-4.73-3.19-1.49-7.26-1.49-6.39 0-10.87 2.7-4.49 2.69-8.47 7.59Zm-2.74-21.16 1.66 7.88q5.23-5.89 11.87-9.54 6.64-3.65 15.6-3.65 6.98 0 12.74 2.9 5.77 2.91 9.96 8.42 4.2 5.52 6.48 13.62 2.28 8.09 2.28 18.55 0 9.54-2.57 17.68-2.58 8.13-7.35 14.11-4.77 5.97-11.53 9.33-6.77 3.37-15.15 3.37-7.14 0-12.2-2.2-5.07-2.2-9.05-6.11v34.86h-20.5V441.11h12.53q3.99 0 5.23 3.74Zm173.47 5.47-4.65 7.39q-.83 1.33-1.74 1.87t-2.32.54q-1.5 0-3.2-.83-1.7-.83-3.94-1.87t-5.11-1.87q-2.86-.83-6.76-.83-6.06 0-9.5 2.58-3.45 2.57-3.45 6.72 0 2.74 1.79 4.61 1.78 1.86 4.73 3.27 2.94 1.42 6.68 2.54 3.73 1.12 7.59 2.44 3.86 1.33 7.6 3.03 3.73 1.71 6.68 4.32 2.94 2.61 4.73 6.27 1.78 3.65 1.78 8.79 0 6.15-2.2 11.33-2.2 5.19-6.51 8.97-4.32 3.77-10.67 5.89-6.35 2.12-14.65 2.12-4.4 0-8.59-.79-4.19-.79-8.05-2.2-3.86-1.41-7.14-3.32-3.27-1.91-5.76-4.15l4.73-7.8q.91-1.41 2.15-2.16 1.25-.75 3.16-.75 1.91 0 3.61 1.08t3.94 2.33q2.24 1.24 5.27 2.32 3.03 1.08 7.68 1.08 3.65 0 6.27-.87 2.61-.87 4.31-2.29 1.7-1.41 2.49-3.27.79-1.87.79-3.86 0-2.99-1.78-4.9-1.79-1.91-4.73-3.32-2.95-1.41-6.73-2.53-3.77-1.12-7.72-2.45-3.94-1.33-7.72-3.11-3.77-1.79-6.72-4.53-2.95-2.74-4.73-6.72-1.78-3.98-1.78-9.63 0-5.23 2.07-9.96 2.08-4.73 6.1-8.26 4.03-3.52 10.04-5.64 6.02-2.12 13.91-2.12 8.79 0 16.02 2.91 7.22 2.9 12.03 7.63Zm82.75 1.33-5.39 7.47q-.92 1.17-1.79 1.83-.87.66-2.53.66-1.58 0-3.07-.95-1.49-.96-3.57-2.16-2.07-1.2-4.94-2.16-2.86-.95-7.09-.95-5.4 0-9.47 1.95-4.06 1.95-6.76 5.6-2.7 3.65-4.03 8.84-1.32 5.19-1.32 11.74 0 6.81 1.45 12.12t4.19 8.93q2.74 3.61 6.64 5.47 3.9 1.87 8.8 1.87 4.89 0 7.92-1.2 3.03-1.21 5.11-2.66 2.07-1.45 3.61-2.65 1.53-1.21 3.44-1.21 2.49 0 3.74 1.91l5.89 7.47q-3.4 3.99-7.39 6.68-3.98 2.7-8.25 4.32-4.28 1.62-8.8 2.28-4.53.67-9.01.67-7.88 0-14.85-2.95-6.98-2.95-12.21-8.59-5.22-5.65-8.25-13.82-3.03-8.18-3.03-18.64 0-9.37 2.69-17.38 2.7-8.01 7.93-13.86 5.23-5.86 12.95-9.18 7.72-3.32 17.76-3.32 9.55 0 16.73 3.07 7.17 3.08 12.9 8.8Zm31.71-5.39 1.24 9.63q3.99-7.64 9.46-12 5.48-4.35 12.95-4.35 5.9 0 9.46 2.57l-1.32 15.35q-.42 1.5-1.21 2.12-.79.62-2.11.62-1.25 0-3.7-.41-2.45-.42-4.77-.42-3.4 0-6.06 1-2.65.99-4.77 2.86-2.12 1.87-3.74 4.52-1.61 2.66-3.03 6.06v52.46h-20.5v-85.16h12.04q3.15 0 4.4 1.12 1.24 1.12 1.66 4.03Zm60.01 27.64h38.67q0-3.99-1.12-7.51-1.12-3.53-3.36-6.19-2.24-2.65-5.68-4.19-3.45-1.54-8.01-1.54-8.88 0-13.99 5.07-5.1 5.06-6.51 14.36Zm52.29 12.36h-52.71q.5 6.56 2.33 11.33 1.82 4.78 4.81 7.89 2.99 3.11 7.1 4.65 4.1 1.53 9.08 1.53t8.6-1.16q3.61-1.16 6.3-2.57 2.7-1.41 4.73-2.58 2.04-1.16 3.95-1.16 2.57 0 3.81 1.91l5.9 7.47q-3.41 3.99-7.64 6.68-4.23 2.7-8.84 4.32-4.6 1.62-9.38 2.28-4.77.67-9.25.67-8.88 0-16.52-2.95-7.63-2.95-13.28-8.72-5.64-5.77-8.88-14.27-3.24-8.51-3.24-19.72 0-8.71 2.83-16.39 2.82-7.68 8.09-13.36 5.27-5.69 12.86-9.01 7.6-3.32 17.14-3.32 8.05 0 14.86 2.58 6.81 2.57 11.7 7.51 4.9 4.94 7.68 12.12 2.78 7.18 2.78 16.39 0 4.65-1 6.27-.99 1.61-3.81 1.61Zm36.35-12.36h38.68q0-3.99-1.12-7.51-1.12-3.53-3.36-6.19-2.24-2.65-5.69-4.19-3.44-1.54-8.01-1.54-8.88 0-13.98 5.07-5.11 5.06-6.52 14.36Zm52.29 12.36h-52.7q.49 6.56 2.32 11.33 1.83 4.78 4.81 7.89 2.99 3.11 7.1 4.65 4.11 1.53 9.09 1.53 4.98 0 8.59-1.16 3.61-1.16 6.31-2.57 2.69-1.41 4.73-2.58 2.03-1.16 3.94-1.16 2.57 0 3.82 1.91l5.89 7.47q-3.4 3.99-7.63 6.68-4.24 2.7-8.84 4.32-4.61 1.62-9.38 2.28-4.78.67-9.26.67-8.88 0-16.51-2.95-7.64-2.95-13.28-8.72-5.65-5.77-8.89-14.27-3.23-8.51-3.23-19.72 0-8.71 2.82-16.39t8.09-13.36q5.27-5.69 12.87-9.01 7.59-3.32 17.14-3.32 8.05 0 14.85 2.58 6.81 2.57 11.71 7.51 4.89 4.94 7.67 12.12 2.78 7.18 2.78 16.39 0 4.65-.99 6.27-1 1.61-3.82 1.61Zm37.93-41.41 1.41 6.72q2.58-2.57 5.44-4.77 2.86-2.2 6.06-3.74 3.19-1.53 6.85-2.4 3.65-.88 7.96-.88 6.98 0 12.37 2.37 5.4 2.36 9.01 6.64 3.61 4.27 5.47 10.21 1.87 5.93 1.87 13.07v54.2h-20.5v-54.2q0-7.8-3.57-12.08-3.57-4.27-10.87-4.27-5.31 0-9.96 2.41-4.65 2.4-8.8 6.55v61.59h-20.5v-85.16h12.53q3.99 0 5.23 3.74Zm132.47 5.47-4.65 7.39q-.83 1.33-1.74 1.87t-2.33.54q-1.49 0-3.19-.83t-3.94-1.87q-2.24-1.04-5.11-1.87-2.86-.83-6.76-.83-6.06 0-9.51 2.58-3.44 2.57-3.44 6.72 0 2.74 1.78 4.61 1.79 1.86 4.74 3.27 2.94 1.42 6.68 2.54 3.73 1.12 7.59 2.44 3.86 1.33 7.6 3.03 3.73 1.71 6.68 4.32 2.94 2.61 4.73 6.27 1.78 3.65 1.78 8.79 0 6.15-2.2 11.33-2.2 5.19-6.51 8.97-4.32 3.77-10.67 5.89-6.35 2.12-14.65 2.12-4.4 0-8.59-.79-4.19-.79-8.05-2.2-3.86-1.41-7.14-3.32t-5.77-4.15l4.74-7.8q.91-1.41 2.15-2.16 1.25-.75 3.16-.75 1.91 0 3.61 1.08t3.94 2.33q2.24 1.24 5.27 2.32 3.03 1.08 7.68 1.08 3.65 0 6.27-.87 2.61-.87 4.31-2.29 1.7-1.41 2.49-3.27.79-1.87.79-3.86 0-2.99-1.78-4.9-1.79-1.91-4.74-3.32-2.94-1.41-6.72-2.53-3.78-1.12-7.72-2.45t-7.72-3.11q-3.77-1.79-6.72-4.53-2.95-2.74-4.73-6.72-1.79-3.98-1.79-9.63 0-5.23 2.08-9.96 2.07-4.73 6.1-8.26 4.03-3.52 10.04-5.64 6.02-2.12 13.91-2.12 8.79 0 16.01 2.91 7.23 2.9 12.04 7.63Zm36.85-47.39v47.31q4.98-4.65 10.96-7.55 5.97-2.91 14.02-2.91 6.98 0 12.37 2.37 5.4 2.36 9.01 6.64 3.61 4.27 5.48 10.21 1.86 5.93 1.86 13.07v54.2h-20.5v-54.2q0-7.8-3.57-12.08-3.57-4.27-10.87-4.27-5.31 0-9.96 2.41-4.65 2.4-8.8 6.55v61.59h-20.5V402.93h20.5Zm110.81 36.85q9.46 0 17.22 3.07 7.76 3.08 13.28 8.72 5.52 5.64 8.51 13.78 2.98 8.13 2.98 18.17 0 10.13-2.98 18.26-2.99 8.14-8.51 13.87-5.52 5.72-13.28 8.79-7.76 3.08-17.22 3.08-9.55 0-17.35-3.08-7.8-3.07-13.32-8.79-5.52-5.73-8.55-13.87-3.03-8.13-3.03-18.26 0-10.04 3.03-18.17 3.03-8.14 8.55-13.78 5.52-5.64 13.32-8.72 7.8-3.07 17.35-3.07Zm0 71.96q10.62 0 15.73-7.13 5.1-7.14 5.1-20.92 0-13.78-5.1-21-5.11-7.22-15.73-7.22-10.79 0-15.98 7.26-5.19 7.27-5.19 20.96 0 13.7 5.19 20.88 5.19 7.17 15.98 7.17Zm95.36-71.96q9.47 0 17.23 3.07 7.76 3.08 13.28 8.72 5.52 5.64 8.5 13.78 2.99 8.13 2.99 18.17 0 10.13-2.99 18.26-2.98 8.14-8.5 13.87-5.52 5.72-13.28 8.79-7.76 3.08-17.23 3.08-9.54 0-17.34-3.08-7.81-3.07-13.32-8.79-5.52-5.73-8.55-13.87-3.03-8.13-3.03-18.26 0-10.04 3.03-18.17 3.03-8.14 8.55-13.78 5.51-5.64 13.32-8.72 7.8-3.07 17.34-3.07Zm0 71.96q10.63 0 15.73-7.13 5.11-7.14 5.11-20.92 0-13.78-5.11-21-5.1-7.22-15.73-7.22-10.79 0-15.97 7.26-5.19 7.27-5.19 20.96 0 13.7 5.19 20.88 5.18 7.17 15.97 7.17Zm86.07 15.86q-11.12 0-17.05-6.27-5.94-6.27-5.94-17.3v-47.56h-8.71q-1.66 0-2.82-1.08-1.17-1.08-1.17-3.24v-8.13l13.7-2.24 4.32-23.24q.41-1.66 1.57-2.58 1.16-.91 2.99-.91h10.62v26.81h22.75v14.61h-22.75v46.14q0 3.99 1.95 6.23 1.96 2.24 5.36 2.24 1.91 0 3.19-.46 1.29-.45 2.25-.95.95-.5 1.7-.95.74-.46 1.49-.46.91 0 1.49.46.59.45 1.25 1.36l6.14 9.96q-4.48 3.74-10.29 5.65-5.81 1.91-12.04 1.91Z"/></svg>